HIERARCHY
ROOT joint_Root
{
	OFFSET 0.0 0.0 0.0
	CHANNELS 6 Xposition Yposition Zposition Zrotation Xrotation Yrotation 
	JOINT Hips
	{
		OFFSET 4.5925 91.4895 -427.239
		CHANNELS 6 Xposition Yposition Zposition Zrotation Xrotation Yrotation 
		JOINT Spine
		{
			OFFSET 15.7357 0.0 0.0
			CHANNELS 6 Xposition Yposition Zposition Zrotation Xrotation Yrotation 
			JOINT Chest
			{
				OFFSET 8.98455 -0.406207 0.0
				CHANNELS 6 Xposition Yposition Zposition Zrotation Xrotation Yrotation 
				JOINT Neck
				{
					OFFSET 16.3773 0.0 0.0
					CHANNELS 6 Xposition Yposition Zposition Zrotation Xrotation Yrotation 
					JOINT Head
					{
						OFFSET 6.45672 0.0 0.0
						CHANNELS 6 Xposition Yposition Zposition Zrotation Xrotation Yrotation 
						End Site
						{
							OFFSET 0.0 0.0 0.0
						}
					}
				}
				JOINT Shoulder_L
				{
					OFFSET 12.9942 -0.242716 4.98039
					CHANNELS 6 Xposition Yposition Zposition Zrotation Xrotation Yrotation 
					JOINT UpperArm_L
					{
						OFFSET 5.34809 0.0 0.0
						CHANNELS 6 Xposition Yposition Zposition Zrotation Xrotation Yrotation 
						JOINT LowerArm_L
						{
							OFFSET 24.3286 1.87007e-05 0.0
							CHANNELS 6 Xposition Yposition Zposition Zrotation Xrotation Yrotation 
							JOINT Hand_L
							{
								OFFSET 22.2916 0.0 0.0
								CHANNELS 6 Xposition Yposition Zposition Zrotation Xrotation Yrotation 
								End Site
								{
									OFFSET 0.0 0.0 0.0
								}
							}
						}
					}
				}
				JOINT Shoulder_R
				{
					OFFSET 12.9945 -0.242716 -4.98039
					CHANNELS 6 Xposition Yposition Zposition Zrotation Xrotation Yrotation 
					JOINT UpperArm_R
					{
						OFFSET -5.34813 0.0 0.0
						CHANNELS 6 Xposition Yposition Zposition Zrotation Xrotation Yrotation 
						JOINT LowerArm_R
						{
							OFFSET -24.3289 0.000322201 0.0
							CHANNELS 6 Xposition Yposition Zposition Zrotation Xrotation Yrotation 
							JOINT Hand_R
							{
								OFFSET -22.2915 -0.000108084 0.0
								CHANNELS 6 Xposition Yposition Zposition Zrotation Xrotation Yrotation 
								End Site
								{
									OFFSET 0.0 0.0 0.0
								}
							}
						}
					}
				}
			}
		}
		JOINT UpperLeg_L
		{
			OFFSET -2.19248 -6.46944 0.0
			CHANNELS 6 Xposition Yposition Zposition Zrotation Xrotation Yrotation 
			JOINT LowerLeg_L
			{
				OFFSET 39.0811 0.0 -1.23785e-05
				CHANNELS 6 Xposition Yposition Zposition Zrotation Xrotation Yrotation 
				JOINT Foot_L
				{
					OFFSET 40.9854 0.0 -1.26872e-05
					CHANNELS 6 Xposition Yposition Zposition Zrotation Xrotation Yrotation 
					JOINT Toes_L
					{
						OFFSET 11.7543 0.0 0.0
						CHANNELS 6 Xposition Yposition Zposition Zrotation Xrotation Yrotation 
						End Site
						{
							OFFSET 0.0 0.0 0.0
						}
					}
				}
			}
		}
		JOINT UpperLeg_R
		{
			OFFSET -2.19251 6.46944 0.0
			CHANNELS 6 Xposition Yposition Zposition Zrotation Xrotation Yrotation 
			JOINT LowerLeg_R
			{
				OFFSET -39.0811 -0.00228153 -0.0401928
				CHANNELS 6 Xposition Yposition Zposition Zrotation Xrotation Yrotation 
				JOINT Foot_R
				{
					OFFSET -40.9854 0.0 0.0
					CHANNELS 6 Xposition Yposition Zposition Zrotation Xrotation Yrotation 
					JOINT Toes_R
					{
						OFFSET -11.7543 0.0 0.0
						CHANNELS 6 Xposition Yposition Zposition Zrotation Xrotation Yrotation 
						End Site
						{
							OFFSET 0.0 0.0 0.0
						}
					}
				}
			}
		}
	}
}
MOTION
Frames:	4
Frame Time:	0.0333333
0.000000 0.000000 0.000000 0.000000 0.000000 -0.000000 4.807590 90.818100 -523.525000 92.920000 -9.354730 -6.957060 15.735700 0.000005 -0.000001 127.304000 83.238300 -129.549000 8.984550 -0.406207 -0.000000 3.186230 8.276960 -4.720770 16.377300 -0.000001 -0.000001 0.718780 -4.608550 2.349750 6.456720 -0.000001 -0.000000 -6.924480 -7.983550 -1.957100 12.994200 -0.242716 4.980390 -85.448100 -10.860000 -67.094500 5.348090 -0.000007 -0.000001 -72.518400 47.235900 40.148200 24.328600 0.000019 0.000005 5.692520 2.471330 -66.601700 22.291600 -0.000001 0.000005 0.414759 5.543070 -8.382750 12.994500 -0.242716 -4.980390 91.113500 -5.534750 -78.605800 -5.348130 -0.000001 -0.000004 -62.371800 20.475800 -58.985700 -24.328900 0.000322 -0.000009 -14.783200 9.970730 -123.263000 -22.291500 -0.000108 -0.000004 20.191300 5.612800 -12.118300 -2.192480 -6.469440 -0.000000 176.682000 -3.011310 -40.259700 39.081100 -0.000007 -0.000012 0.010783 -0.005288 63.853500 40.985400 -0.000006 -0.000013 5.588340 -7.024220 -63.860700 11.754300 -0.000000 0.000003 -0.006968 -0.079396 -19.808900 -2.192510 6.469440 -0.000001 172.515000 29.536800 -179.187000 -39.081100 -0.002282 -0.040193 -0.037359 0.115182 19.453000 -40.985400 0.000008 0.000006 6.427400 19.510100 -72.655700 -11.754300 -0.000006 -0.000006 -0.014760 -0.136302 -22.133800
0.000000 0.000000 0.000000 0.000000 0.000000 -0.000000 4.722030 90.211700 -521.530000 92.856100 -10.161500 -6.723940 15.735700 0.000005 -0.000001 128.259000 82.565700 -131.006000 8.984550 -0.406207 -0.000000 4.183420 9.279020 -5.838070 16.377300 -0.000001 -0.000001 -0.172922 -4.096110 1.304740 6.456720 -0.000001 -0.000000 -6.903910 -8.814090 -1.604920 12.994200 -0.242716 4.980390 -84.487700 -12.750300 -66.381800 5.348090 -0.000007 -0.000001 -70.095900 40.363400 38.963800 24.328600 0.000019 0.000005 6.518940 2.386500 -69.976500 22.291600 -0.000001 0.000005 0.475567 5.515340 -7.170960 12.994500 -0.242716 -4.980390 91.056000 -5.472540 -79.061600 -5.348130 -0.000001 -0.000004 -59.673000 20.646800 -58.810100 -24.328900 0.000322 -0.000009 -18.645600 12.940300 -123.572000 -22.291500 -0.000108 -0.000004 21.050000 5.623280 -12.844500 -2.192480 -6.469440 -0.000000 178.088000 -4.026100 -40.120500 39.081100 -0.000007 -0.000012 0.029387 -0.020231 55.448900 40.985400 -0.000006 -0.000013 -0.179862 0.507566 -66.513000 11.754300 -0.000000 0.000003 -0.006254 -0.073138 -19.553600 -2.192510 6.469440 -0.000001 172.622000 23.830300 -179.165000 -39.081100 -0.002282 -0.040193 -0.036654 0.100446 21.699800 -40.985400 0.000008 0.000006 5.784830 14.926400 -73.579100 -11.754300 -0.000006 -0.000006 -0.013922 -0.130917 -21.912900
0.000000 0.000000 0.000000 0.000000 0.000000 -0.000000 4.548630 88.983200 -518.974000 92.221800 -10.447500 -4.898690 15.735700 0.000005 -0.000001 123.493000 81.559300 -126.176000 8.984550 -0.406207 -0.000000 6.604040 9.315060 -5.906550 16.377300 -0.000001 -0.000001 -1.295510 -3.353080 0.067228 6.456720 -0.000001 -0.000000 -8.048080 -8.590530 -2.115540 12.994200 -0.242716 4.980390 -84.813700 -12.073500 -66.542300 5.348090 -0.000007 -0.000001 -67.827700 31.825900 36.749600 24.328600 0.000019 0.000005 8.919200 2.905630 -72.093600 22.291600 -0.000001 0.000005 2.023060 5.485180 -5.959760 12.994500 -0.242716 -4.980390 90.736500 -4.100960 -79.812900 -5.348130 -0.000001 -0.000004 -56.300700 24.054900 -56.449600 -24.328900 0.000322 -0.000009 -19.603600 12.397800 -121.081000 -22.291500 -0.000108 -0.000004 19.750400 5.613030 -12.145000 -2.192480 -6.469440 -0.000000 -179.949000 -5.380200 -37.682500 39.081100 -0.000007 -0.000012 0.011060 -0.009539 49.213400 40.985400 -0.000006 -0.000013 -4.275310 4.799590 -67.450000 11.754300 -0.000000 0.000003 -0.005689 -0.067996 -19.343900 -2.192510 6.469440 -0.000001 172.091000 20.327600 -176.905000 -39.081100 -0.002282 -0.040193 -0.047035 0.108391 24.914800 -40.985400 0.000008 0.000006 5.170690 12.481000 -76.016700 -11.754300 -0.000006 -0.000006 -0.015795 -0.142766 -22.399200
0.000000 0.000000 0.000000 0.000000 0.000000 -0.000000 4.273860 87.316900 -515.845000 91.241800 -9.612230 -3.627580 15.735700 0.000005 -0.000001 117.510000 81.254800 -119.896000 8.984550 -0.406207 -0.000000 7.978590 8.040880 -5.334490 16.377300 -0.000001 -0.000001 -2.167770 -2.924280 0.045630 6.456720 -0.000001 -0.000000 -8.157990 -7.181130 -3.269750 12.994200 -0.242716 4.980390 -85.996600 -9.584990 -67.203800 5.348090 -0.000007 -0.000001 -65.978500 23.171400 34.115400 24.328600 0.000019 0.000005 15.530300 4.740590 -73.437900 22.291600 -0.000001 0.000005 4.027010 5.454060 -4.792040 12.994500 -0.242716 -4.980390 90.217500 -1.442660 -81.449400 -5.348130 -0.000001 -0.000004 -55.035100 29.891000 -49.401300 -24.328900 0.000322 -0.000009 -18.373400 8.963920 -115.123000 -22.291500 -0.000108 -0.000004 18.804800 5.608840 -11.885100 -2.192480 -6.469440 -0.000000 -178.911000 -7.758460 -36.133900 39.081100 -0.000007 -0.000012 0.009572 -0.008760 47.526500 40.985400 -0.000006 -0.000013 -3.644510 2.445260 -68.873900 11.754300 -0.000000 0.000003 -0.006027 -0.071089 -19.470000 -2.192510 6.469440 -0.000001 171.541000 19.811400 -174.120000 -39.081100 -0.002282 -0.040193 -0.065936 0.130641 27.924400 -40.985400 0.000008 0.000006 5.047090 12.213700 -79.081300 -11.754300 -0.000006 -0.000006 -0.019722 -0.165744 -23.344300
